<svg width="229" height="40" viewBox="0 0 229 40" fill="none" xmlns="http://www.w3.org/2000/svg">
<g clip-path="url(#clip0_118_50)">
<path d="M158.819 0.509003V39.491" stroke="#4D4D4D" stroke-miterlimit="10"/>
<path d="M185.774 16.5474C183.606 16.5474 181.527 17.4105 179.994 18.9468C178.461 20.4831 177.6 22.5668 177.6 24.7395C177.6 26.9122 178.461 28.9959 179.994 30.5322C181.527 32.0685 183.606 32.9316 185.774 32.9316C188.786 32.8379 191.656 31.6303 193.833 29.5414V35.6783C191.25 37.1759 188.335 38.0013 185.352 38.0792C177.83 38.0792 171.515 31.9424 171.515 24.7395C171.515 17.1236 177.868 11.4094 185.391 11.4094C188.325 11.4605 191.216 12.1348 193.871 13.3878V19.4094C191.493 17.6824 188.668 16.6818 185.736 16.5282" fill="#CE0E2D"/>
<path d="M209.854 38.0792C202.294 38.0792 195.902 32.1729 195.902 24.7395C195.902 17.3061 202.256 11.4094 210.199 11.4094C213.178 11.4363 216.123 12.0429 218.871 13.1957V19.2077C216.279 17.6379 213.339 16.734 210.314 16.5762C209.21 16.5404 208.109 16.7245 207.076 17.1179C206.043 17.5113 205.098 18.1062 204.296 18.8681C203.494 19.63 202.851 20.5438 202.403 21.5566C201.956 22.5693 201.714 23.661 201.69 24.7683C201.769 26.1449 202.168 27.4839 202.855 28.6787C203.542 29.8734 204.497 30.891 205.646 31.6502C206.794 32.4095 208.104 32.8894 209.47 33.0519C210.836 33.2143 212.221 33.0547 213.515 32.5858V27.7839H209.26V22.6843H218.996V36.1777C216.11 37.4638 212.984 38.1186 209.826 38.0984" fill="#CE0E2D"/>
<path d="M228.76 11.9376H223.289V37.5414H228.76V11.9376Z" fill="#CE0E2D"/>
<path d="M177.332 5.90636C176.488 5.91204 175.672 5.60409 175.042 5.04202L175.751 4.20648C176.189 4.61517 176.762 4.84767 177.36 4.85954C177.84 4.85954 178.137 4.66747 178.137 4.35054C178.137 4.05282 177.955 3.89916 177.054 3.66867C175.961 3.39016 175.262 3.08283 175.262 2.01681C175.268 1.77891 175.324 1.54494 175.426 1.3302C175.528 1.11547 175.675 0.9248 175.856 0.770682C176.037 0.616564 176.248 0.502468 176.476 0.435859C176.704 0.369251 176.943 0.351632 177.178 0.384154C177.906 0.373038 178.615 0.61769 179.181 1.07563L178.568 1.96879C178.161 1.65578 177.671 1.47182 177.159 1.44058C176.709 1.44058 176.469 1.65186 176.469 1.91116C176.469 2.26651 176.699 2.39136 177.629 2.62185C178.731 2.90996 179.344 3.30372 179.344 4.2449C179.315 5.31092 178.501 5.90636 177.332 5.90636Z" fill="#4D4D4D"/>
<path d="M182.89 5.82953V5.2437C182.758 5.44536 182.58 5.61139 182.369 5.72701C182.158 5.84262 181.922 5.90424 181.682 5.90636C181.484 5.91524 181.287 5.88042 181.104 5.80438C180.921 5.72834 180.757 5.61294 180.624 5.46634C180.49 5.31973 180.391 5.14552 180.332 4.95602C180.273 4.76652 180.256 4.56638 180.283 4.36975V1.69028H181.452V4.0048C181.452 4.56183 181.721 4.84034 182.161 4.84034C182.602 4.84034 182.89 4.56183 182.89 4.0048V1.69028H184.068V5.82953H182.89Z" fill="#4D4D4D"/>
<path d="M187.662 5.90636C187.414 5.91237 187.169 5.85984 186.946 5.75304C186.723 5.64624 186.528 5.48818 186.377 5.29172V7.06843H185.199V1.69027H186.377V2.28571C186.518 2.0744 186.709 1.902 186.933 1.78448C187.158 1.66696 187.408 1.60813 187.662 1.61344C187.933 1.61164 188.202 1.6676 188.45 1.77764C188.698 1.88767 188.92 2.04927 189.101 2.25173C189.282 2.45419 189.418 2.6929 189.501 2.95206C189.583 3.21123 189.609 3.48495 189.578 3.7551C189.611 4.026 189.585 4.30076 189.504 4.5611C189.422 4.82143 189.286 5.06136 189.105 5.2649C188.924 5.46845 188.701 5.63093 188.452 5.74154C188.203 5.85215 187.934 5.90833 187.662 5.90636ZM188.371 3.7551C188.391 3.611 188.379 3.4643 188.338 3.32489C188.296 3.18547 188.226 3.05658 188.13 2.9469C188.035 2.83721 187.917 2.74928 187.785 2.68902C187.653 2.62877 187.51 2.59759 187.364 2.59759C187.219 2.59759 187.076 2.62877 186.944 2.68902C186.812 2.74928 186.694 2.83721 186.599 2.9469C186.503 3.05658 186.432 3.18547 186.391 3.32489C186.35 3.4643 186.338 3.611 186.358 3.7551C186.338 3.8992 186.35 4.0459 186.391 4.18531C186.432 4.32473 186.503 4.45362 186.599 4.56331C186.694 4.67299 186.812 4.76092 186.944 4.82118C187.076 4.88143 187.219 4.91261 187.364 4.91261C187.51 4.91261 187.653 4.88143 187.785 4.82118C187.917 4.76092 188.035 4.67299 188.13 4.56331C188.226 4.45362 188.296 4.32473 188.338 4.18531C188.379 4.0459 188.391 3.8992 188.371 3.7551Z" fill="#4D4D4D"/>
<path d="M192.951 5.90636C192.701 5.91544 192.452 5.8644 192.225 5.75748C191.998 5.65056 191.8 5.49086 191.648 5.29172V7.06843H190.469V1.69027H191.648V2.28571C191.788 2.0744 191.979 1.902 192.204 1.78448C192.428 1.66696 192.679 1.60813 192.932 1.61344C193.203 1.61164 193.472 1.6676 193.72 1.77764C193.968 1.88767 194.19 2.04927 194.371 2.25173C194.553 2.45419 194.689 2.6929 194.771 2.95206C194.853 3.21123 194.88 3.48495 194.848 3.7551C194.881 4.02439 194.856 4.29751 194.776 4.5565C194.695 4.81549 194.561 5.05446 194.382 5.2577C194.202 5.46093 193.982 5.62381 193.736 5.73561C193.489 5.84741 193.222 5.90561 192.951 5.90636ZM193.66 3.7551C193.68 3.611 193.669 3.4643 193.627 3.32489C193.586 3.18547 193.515 3.05658 193.42 2.9469C193.325 2.83721 193.207 2.74928 193.075 2.68902C192.943 2.62877 192.799 2.59759 192.654 2.59759C192.509 2.59759 192.365 2.62877 192.233 2.68902C192.101 2.74928 191.984 2.83721 191.888 2.9469C191.793 3.05658 191.722 3.18547 191.681 3.32489C191.639 3.4643 191.628 3.611 191.648 3.7551C191.628 3.8992 191.639 4.0459 191.681 4.18531C191.722 4.32473 191.793 4.45362 191.888 4.56331C191.984 4.67299 192.101 4.76092 192.233 4.82118C192.365 4.88143 192.509 4.91261 192.654 4.91261C192.799 4.91261 192.943 4.88143 193.075 4.82118C193.207 4.76092 193.325 4.67299 193.42 4.56331C193.515 4.45362 193.586 4.32473 193.627 4.18531C193.669 4.0459 193.68 3.8992 193.66 3.7551Z" fill="#4D4D4D"/>
<path d="M197.809 5.92557C197.522 5.93587 197.235 5.88816 196.967 5.78527C196.698 5.68238 196.453 5.52642 196.245 5.32664C196.038 5.12686 195.873 4.88735 195.759 4.62233C195.646 4.35731 195.587 4.0722 195.586 3.78391C195.586 3.19044 195.821 2.62127 196.24 2.20162C196.659 1.78198 197.227 1.54622 197.819 1.54622C198.411 1.54622 198.979 1.78198 199.398 2.20162C199.816 2.62127 200.052 3.19044 200.052 3.78391C200.048 4.07309 199.987 4.35862 199.871 4.62374C199.756 4.88885 199.589 5.12819 199.38 5.32771C199.171 5.52722 198.925 5.68289 198.655 5.78556C198.385 5.88823 198.098 5.93583 197.809 5.92557ZM198.892 3.77431C198.899 3.62735 198.875 3.4806 198.824 3.34281C198.773 3.20503 198.694 3.07904 198.593 2.97236C198.492 2.86569 198.37 2.78053 198.236 2.72195C198.101 2.66338 197.956 2.6326 197.809 2.63145C197.663 2.6285 197.519 2.65592 197.384 2.71198C197.249 2.76804 197.127 2.85152 197.027 2.95714C196.926 3.06276 196.848 3.18822 196.798 3.32557C196.748 3.46293 196.727 3.60919 196.736 3.7551C196.731 3.90254 196.755 4.0495 196.808 4.18733C196.86 4.32516 196.94 4.45105 197.042 4.55758C197.143 4.66411 197.266 4.74911 197.401 4.80757C197.536 4.86603 197.681 4.89677 197.828 4.89796C197.974 4.89968 198.119 4.87101 198.253 4.81377C198.388 4.75653 198.509 4.67197 198.609 4.56544C198.709 4.45891 198.785 4.33273 198.834 4.1949C198.883 4.05706 198.903 3.91057 198.892 3.76471V3.77431Z" fill="#4D4D4D"/>
<path d="M203.415 2.88115C202.639 2.88115 202.16 3.35174 202.16 4.34093V5.82953H200.991V1.69027H202.189V2.52581C202.272 2.24747 202.448 2.00577 202.686 1.8401C202.924 1.67442 203.212 1.59453 203.501 1.61344V2.88115H203.415Z" fill="#4D4D4D"/>
<path d="M205.696 5.90636C204.977 5.90636 204.488 5.61824 204.488 4.65786V2.73709H204V1.77671H204.488V0.63385H205.667V1.69027H206.625V2.69868H205.667V4.46578C205.667 4.73469 205.782 4.86914 206.041 4.86914C206.241 4.86818 206.438 4.81876 206.616 4.72509V5.68547C206.336 5.84406 206.017 5.9206 205.696 5.90636Z" fill="#4D4D4D"/>
<path d="M211.311 4.17767H208.436C208.473 4.40492 208.59 4.61138 208.766 4.75945C208.942 4.90753 209.165 4.98735 209.394 4.98439C209.582 4.98619 209.768 4.94965 209.941 4.87699C210.114 4.80434 210.27 4.69709 210.401 4.56182L211.071 5.15726C210.868 5.40613 210.61 5.60482 210.317 5.73802C210.025 5.87123 209.706 5.93539 209.385 5.92557C209.099 5.93899 208.814 5.893 208.547 5.79051C208.28 5.68801 208.038 5.53122 207.834 5.33003C207.631 5.12883 207.471 4.88758 207.365 4.62148C207.259 4.35538 207.21 4.0702 207.219 3.78391C207.208 3.50592 207.252 3.22843 207.35 2.96796C207.447 2.70749 207.596 2.46937 207.787 2.26776C207.979 2.06615 208.209 1.90518 208.463 1.79442C208.718 1.68366 208.992 1.62538 209.27 1.62304C209.555 1.61616 209.839 1.67016 210.101 1.78146C210.364 1.89277 210.601 2.05884 210.795 2.26865C210.988 2.47846 211.136 2.7272 211.226 2.99838C211.317 3.26956 211.349 3.55697 211.32 3.84153C211.32 3.99519 211.32 4.06242 211.311 4.17767ZM209.318 2.55462C209.086 2.56784 208.868 2.66464 208.702 2.82709C208.536 2.98954 208.435 3.20663 208.417 3.43817H210.18C210.18 3.20713 210.09 2.98526 209.929 2.8201C209.768 2.65494 209.548 2.55964 209.318 2.55462Z" fill="#4D4D4D"/>
<path d="M215.268 5.82953V5.23409C215.127 5.4468 214.935 5.62009 214.708 5.73768C214.482 5.85527 214.23 5.91331 213.975 5.90636C213.704 5.90801 213.437 5.85227 213.189 5.74281C212.942 5.63335 212.72 5.47265 212.539 5.27127C212.358 5.06989 212.222 4.83239 212.139 4.57439C212.056 4.31638 212.029 4.04372 212.058 3.77431C212.027 3.50416 212.054 3.23044 212.136 2.97127C212.218 2.71211 212.354 2.4734 212.535 2.27094C212.717 2.06848 212.939 1.90688 213.187 1.79685C213.435 1.68681 213.704 1.63085 213.975 1.63265C214.224 1.62701 214.472 1.68063 214.696 1.78913C214.921 1.89762 215.117 2.05792 215.268 2.2569V0.192078H216.438V5.82953H215.268ZM215.268 3.7551C215.282 3.61506 215.266 3.47369 215.222 3.3401C215.178 3.20651 215.107 3.08364 215.012 2.9794C214.918 2.87517 214.803 2.79187 214.675 2.73486C214.546 2.67786 214.408 2.64841 214.267 2.64841C214.127 2.64841 213.988 2.67786 213.86 2.73486C213.731 2.79187 213.616 2.87517 213.522 2.9794C213.427 3.08364 213.356 3.20651 213.312 3.3401C213.268 3.47369 213.252 3.61506 213.266 3.7551C213.252 3.89515 213.268 4.03651 213.312 4.17011C213.356 4.3037 213.427 4.42657 213.522 4.5308C213.616 4.63504 213.731 4.71834 213.86 4.77534C213.988 4.83235 214.127 4.8618 214.267 4.8618C214.408 4.8618 214.546 4.83235 214.675 4.77534C214.803 4.71834 214.918 4.63504 215.012 4.5308C215.107 4.42657 215.178 4.3037 215.222 4.17011C215.266 4.03651 215.282 3.89515 215.268 3.7551Z" fill="#4D4D4D"/>
<path d="M222.436 5.90636C222.189 5.91394 221.943 5.8621 221.72 5.75518C221.496 5.64826 221.302 5.48935 221.152 5.29172V5.82953H219.973V0.192078H221.152V2.28572C221.292 2.0744 221.484 1.902 221.708 1.78448C221.932 1.66696 222.183 1.60813 222.436 1.61345C222.707 1.61164 222.976 1.66761 223.224 1.77764C223.472 1.88767 223.694 2.04927 223.876 2.25173C224.057 2.45419 224.193 2.6929 224.275 2.95207C224.357 3.21123 224.384 3.48495 224.353 3.7551C224.385 4.026 224.36 4.30076 224.278 4.5611C224.197 4.82143 224.061 5.06136 223.879 5.26491C223.698 5.46845 223.476 5.63094 223.227 5.74154C222.978 5.85215 222.708 5.90834 222.436 5.90636ZM223.145 3.7551C223.165 3.611 223.154 3.4643 223.112 3.32489C223.071 3.18548 223 3.05658 222.905 2.9469C222.81 2.83721 222.692 2.74928 222.56 2.68902C222.428 2.62877 222.284 2.59759 222.139 2.59759C221.994 2.59759 221.85 2.62877 221.718 2.68902C221.586 2.74928 221.468 2.83721 221.373 2.9469C221.278 3.05658 221.207 3.18548 221.166 3.32489C221.124 3.4643 221.113 3.611 221.133 3.7551C221.113 3.8992 221.124 4.0459 221.166 4.18532C221.207 4.32473 221.278 4.45362 221.373 4.56331C221.468 4.67299 221.586 4.76093 221.718 4.82118C221.85 4.88144 221.994 4.91261 222.139 4.91261C222.284 4.91261 222.428 4.88144 222.56 4.82118C222.692 4.76093 222.81 4.67299 222.905 4.56331C223 4.45362 223.071 4.32473 223.112 4.18532C223.154 4.0459 223.165 3.8992 223.145 3.7551Z" fill="#4D4D4D"/>
<path d="M227.419 5.93517C227.103 6.77071 226.758 7.08764 226.058 7.08764C225.694 7.09531 225.335 6.9987 225.023 6.80912L225.416 5.95438C225.565 6.05116 225.737 6.10742 225.914 6.11765C226.003 6.1265 226.093 6.10467 226.168 6.05578C226.243 6.00689 226.299 5.93386 226.326 5.84874L224.707 1.69028H225.943L226.901 4.51381L227.802 1.69028H229.019L227.419 5.93517Z" fill="#4D4D4D"/>
<path d="M0 0.585831H3.88087C4.28844 0.556016 4.69784 0.60867 5.08469 0.740661C5.47155 0.872651 5.82796 1.08128 6.13273 1.35414C6.31975 1.54158 6.46707 1.76495 6.56587 2.01084C6.66466 2.25673 6.7129 2.52008 6.70767 2.78511C6.71529 3.19087 6.60287 3.58981 6.38459 3.93163C6.16632 4.27346 5.85195 4.54286 5.48113 4.70588C5.96982 4.80022 6.41004 5.06331 6.72519 5.44935C7.04033 5.83539 7.21046 6.31995 7.20596 6.81872C7.20596 8.37455 5.9315 9.20048 4.00544 9.20048H0V0.585831ZM5.20324 3.0156C5.20324 2.33373 4.65704 1.92077 3.67964 1.92077H1.50444V4.22569H3.58381C4.54205 4.22569 5.20324 3.85114 5.20324 3.02521V3.0156ZM3.92878 5.52221H1.5236V7.90396H4.05335C5.10742 7.90396 5.74944 7.5006 5.74944 6.72269C5.74944 5.94477 5.10742 5.52221 3.92878 5.52221Z" fill="#0973B9"/>
<path d="M8.68164 7.52941H10.3394V9.23889H8.68164V7.52941Z" fill="#0973B9"/>
<path d="M12.3901 0.585835H15.7918C17.8233 0.585835 19.069 1.7383 19.069 3.46699C19.069 5.38776 17.5167 6.42497 15.6193 6.42497H13.8945V9.21008H12.3613V0.566628L12.3901 0.585835ZM15.696 5.09964C16.8459 5.09964 17.6125 4.44658 17.6125 3.54382C17.6125 2.51621 16.8842 1.988 15.696 1.988H13.9137V5.09964H15.696Z" fill="#0973B9"/>
<path d="M23.956 0.509003H25.355L29.188 9.2581H27.5302L26.6582 7.15486H22.5474L21.6466 9.2581H20.123L23.956 0.509003ZM26.1025 5.7623L24.6076 2.33373L23.1319 5.7623H26.1025Z" fill="#0973B9"/>
<path d="M30.4337 4.94598C30.4513 4.04348 30.7333 3.16609 31.2448 2.42309C31.7562 1.68009 32.4745 1.10432 33.3101 0.767491C34.1457 0.43066 35.0617 0.347657 35.944 0.52882C36.8263 0.709982 37.636 1.1473 38.2721 1.78632L37.2947 2.88115C36.9814 2.55048 36.6059 2.28519 36.1898 2.10059C35.7737 1.91599 35.3253 1.8157 34.8704 1.80552C34.477 1.80473 34.0877 1.88485 33.7265 2.04091C33.3653 2.19698 33.0399 2.42568 32.7705 2.71285C32.501 3.00002 32.2932 3.33957 32.1599 3.71046C32.0267 4.08136 31.9707 4.47572 31.9957 4.86915C31.9737 5.26332 32.0314 5.65787 32.1654 6.02911C32.2994 6.40035 32.5069 6.74062 32.7754 7.02947C33.0439 7.31831 33.3679 7.54978 33.7279 7.70996C34.0879 7.87014 34.4765 7.95573 34.8704 7.96159C35.3374 7.96811 35.8008 7.87761 36.2312 7.6958C36.6617 7.51398 37.0499 7.24478 37.3714 6.90516L38.3296 7.86555C37.8966 8.36781 37.3568 8.76651 36.7499 9.03241C36.143 9.29831 35.4844 9.42465 34.8225 9.40216C34.2416 9.40093 33.6668 9.2844 33.1311 9.05931C32.5954 8.83421 32.1096 8.50501 31.7015 8.0907C31.2935 7.67639 30.9714 7.18519 30.7538 6.64544C30.5362 6.10569 30.4274 5.52809 30.4337 4.94598Z" fill="#0973B9"/>
<path d="M27.1565 27.6975C27.0319 27.8511 27.0798 28.024 27.0607 28.1777C26.7043 30.9202 25.5203 33.4881 23.6673 35.5375C21.8143 37.5869 19.3807 39.0199 16.6925 39.6447C15.4728 39.9369 14.2163 40.0437 12.965 39.9616C10.0619 39.8194 7.28206 38.7428 5.03797 36.8916C2.79389 35.0405 1.20523 32.5133 0.507843 29.6855C0.136537 28.192 0.0263056 26.6453 0.182041 25.114C0.46313 22.2531 1.64537 19.5561 3.55761 17.4134C5.46985 15.2707 8.01286 13.7935 10.8185 13.1957C11.3269 13.0685 11.8472 12.9944 12.3708 12.9748C12.4188 12.9748 12.4475 12.9748 12.4667 12.9748H14.8239C14.8239 12.9748 14.8239 12.9748 14.9006 12.9748C15.3044 12.9947 15.7054 13.0525 16.0984 13.1477C18.9878 13.6773 21.626 15.1369 23.6129 17.3051C25.5999 19.4733 26.8271 22.2317 27.1086 25.1621C27.1086 25.2197 27.1086 25.2677 27.1565 25.2869V27.6975ZM13.0416 27.4766L14.5652 26.8908C15.8205 26.4394 17.0471 26.0168 18.2928 25.5846C18.6523 25.4429 19.0453 25.4096 19.4235 25.4886C19.7279 25.5627 20.005 25.7221 20.2222 25.9484C20.4394 26.1746 20.5878 26.4582 20.65 26.7659C20.7126 27.0467 20.6863 27.3401 20.5746 27.6052C20.463 27.8704 20.2716 28.094 20.0272 28.2449C19.7139 28.4718 19.3682 28.6498 19.0019 28.7731C17.2962 29.4134 15.5937 30.0536 13.8944 30.6939C13.0129 31.0204 12.1121 31.3181 11.2593 31.7215C10.9444 31.8572 10.6595 32.0541 10.4209 32.3007C10.1824 32.5474 9.99487 32.8389 9.86927 33.1585C9.74366 33.4782 9.68244 33.8195 9.68911 34.163C9.69579 34.5065 9.77024 34.8452 9.90817 35.1597L9.98483 35.3037C10.2816 35.8455 10.7355 36.2843 11.2864 36.5621C11.8373 36.8399 12.4594 36.9436 13.0704 36.8595C13.6415 36.75 14.2024 36.5926 14.7473 36.3889C15.0443 36.2833 15.3701 36.1585 15.7055 36.0624L15.0539 34.3529L14.6035 34.5066C14.0478 34.7083 13.5016 34.9292 12.9266 35.0828C12.7081 35.146 12.4736 35.1212 12.2731 35.0135C12.0726 34.9059 11.922 34.724 11.8534 34.5066C11.755 34.2968 11.741 34.0571 11.8141 33.8372C11.8872 33.6173 12.042 33.434 12.2463 33.3253L12.7541 33.0948C14.9773 32.2209 17.2579 31.443 19.5097 30.6362C20.192 30.4119 20.8378 30.0883 21.4262 29.6759C22.0838 29.1678 22.5164 28.4215 22.631 27.5973C22.7457 26.7731 22.5333 25.9367 22.0395 25.2677C21.8436 24.9994 21.6077 24.7629 21.34 24.5666C20.836 24.1795 20.2365 23.9371 19.6055 23.8655C19.6055 23.7311 19.6822 23.6831 19.7397 23.587C20.1386 22.9084 20.3533 22.1369 20.3626 21.3493C20.2913 20.2231 19.8026 19.1643 18.9923 18.3807C18.1821 17.5971 17.1089 17.1453 15.9834 17.114C15.1632 17.0916 14.3464 17.2285 13.5782 17.5174C11.2785 18.2953 9.04575 19.1981 6.76514 20.0432C6.28334 20.2318 5.84841 20.5235 5.49069 20.898C5.2043 21.2176 4.99285 21.5973 4.87182 22.0094C4.75078 22.4215 4.72323 22.8556 4.79117 23.2797C4.82072 23.8193 5.00571 24.3387 5.32374 24.775C5.64178 25.2114 6.07921 25.546 6.58308 25.7383C7.21504 25.971 7.90092 26.0144 8.55705 25.8631C9.21169 25.779 9.82385 25.4924 10.3082 25.0431C10.7926 24.5937 11.1251 24.0042 11.2593 23.3565C11.3905 22.6957 11.4164 22.0183 11.3359 21.3493C11.3359 21.0036 11.2114 20.6483 11.1635 20.3025L12.4571 19.7935C13.3316 19.4174 14.2488 19.1497 15.1881 18.9964C15.8637 18.8955 16.5519 19.0645 17.1045 19.467C17.489 19.7454 17.8011 20.1123 18.0145 20.5368C18.228 20.9613 18.3365 21.431 18.3311 21.9064C18.3357 22.2575 18.2563 22.6047 18.0996 22.9188C17.9429 23.2329 17.7134 23.5049 17.4303 23.7119C17.1692 23.9076 16.8822 24.066 16.5775 24.1825C16.0313 24.413 15.4755 24.5858 14.9293 24.8163L12.3229 25.7767L13.0416 27.4766Z" fill="#0973B9"/>
<path d="M9.40989 20.898C9.43995 20.9297 9.46572 20.9652 9.48655 21.0036C9.69004 21.6229 9.73291 22.2839 9.61112 22.9244C9.56995 23.1349 9.48755 23.3351 9.3687 23.5135C9.24985 23.6918 9.0969 23.8448 8.91869 23.9636C8.74047 24.0824 8.54054 24.1646 8.33044 24.2055C8.12034 24.2463 7.90424 24.245 7.69464 24.2017H7.6659C7.43319 24.1461 7.22043 24.0268 7.05126 23.8573C6.8821 23.6878 6.76315 23.4745 6.70766 23.2413C6.64612 23.0176 6.64852 22.781 6.7146 22.5586C6.78067 22.3361 6.90775 22.1368 7.08137 21.9832C7.25637 21.8344 7.44957 21.7085 7.65631 21.6086C8.21209 21.3589 8.75829 21.1573 9.33323 20.9364C9.31407 20.898 9.36198 20.898 9.40989 20.898Z" fill="#0973B9"/>
<path d="M36.8922 37.2053C36.8833 37.2399 36.8833 37.2763 36.8922 37.3109C36.8055 37.9379 36.5295 38.5233 36.1013 38.9885C35.6731 39.4537 35.1132 39.7765 34.4966 39.9136C34.2197 39.9927 33.9303 40.0187 33.6438 39.9904C32.9764 39.9681 32.3346 39.7282 31.8157 39.307C31.2969 38.8857 30.9294 38.3063 30.7691 37.6567C30.6949 37.3195 30.6691 36.9735 30.6924 36.6291C30.755 35.9803 31.0217 35.3684 31.454 34.8816C31.8864 34.3947 32.4619 34.0583 33.0976 33.9208C33.2154 33.9068 33.3344 33.9068 33.4521 33.9208H33.9792C34.0681 33.907 34.1586 33.907 34.2475 33.9208C34.9048 34.0439 35.5047 34.3772 35.9572 34.8706C36.4098 35.364 36.6908 35.991 36.7581 36.6579L36.8922 37.2053Z" fill="#0973B9"/>
<path d="M55.1755 26.3337C51.1836 26.3438 47.327 24.8845 44.3378 22.2329L47.6629 18.2473C49.7559 20.1838 52.4811 21.2899 55.3288 21.3589C57.6285 21.3589 59.018 20.4466 59.018 18.9484V18.8715C59.018 17.4406 58.1364 16.7107 53.8722 15.6158C48.7265 14.3001 45.4014 12.8691 45.4014 7.78871V7.68307C45.4014 3.03481 49.129 -3.85335e-06 54.3418 -3.85335e-06C57.7861 -0.0569932 61.1419 1.09468 63.8284 3.2557L60.9536 7.5006C59.042 6.00545 56.7237 5.12494 54.3035 4.97479C52.157 4.97479 51.0263 5.93517 51.0263 7.20288V7.27971C51.0263 8.96038 52.1187 9.5078 56.5362 10.6411C61.7202 11.9952 64.6333 13.8583 64.6333 18.3241V18.3914C64.5566 23.4814 60.6949 26.3337 55.1755 26.3337Z" fill="#0973B9"/>
<path d="M87.9089 25.9304L85.5804 20.1681H74.7427L72.4429 25.9304H66.6935L77.6174 0.182472H82.8015L93.7829 25.9304H87.9089ZM80.1759 6.95318L76.7837 15.2509H83.5681L80.1759 6.95318Z" fill="#0973B9"/>
<path d="M103.346 5.48379V10.9388H115.535V16.0576H103.346V25.9304H97.7404V0.364944H117.183V5.48379H103.346Z" fill="#0973B9"/>
<path d="M121.696 25.9304V0.364944H140.967V5.37815H127.245V10.5642H139.29V15.5678H127.245V20.946H141.11V25.9304H121.696Z" fill="#0973B9"/>
<path d="M48.5732 39.9904C48.0137 39.9995 47.458 39.8956 46.9394 39.6849C46.4208 39.4742 45.9498 39.161 45.5546 38.764C45.1593 38.367 44.8479 37.8942 44.6389 37.374C44.4298 36.8537 44.3274 36.2966 44.3378 35.7359C44.3272 35.168 44.4315 34.604 44.6444 34.0776C44.8573 33.5513 45.1743 33.0736 45.5763 32.6733C45.9783 32.2731 46.4571 31.9586 46.9837 31.7488C47.5102 31.539 48.0738 31.4382 48.6403 31.4526C49.2426 31.4219 49.8446 31.5199 50.4063 31.7401C50.968 31.9603 51.4766 32.2977 51.8983 32.7299L50.7867 34.0456C50.2375 33.4599 49.48 33.1148 48.6786 33.0852C48.3518 33.0925 48.0298 33.1654 47.7317 33.2996C47.4335 33.4339 47.1652 33.6267 46.9428 33.8667C46.7203 34.1067 46.5481 34.389 46.4364 34.6968C46.3247 35.0047 46.2758 35.3319 46.2926 35.6591C46.2732 35.9878 46.3201 36.317 46.4306 36.6272C46.5411 36.9373 46.7128 37.2219 46.9355 37.464C47.1583 37.706 47.4275 37.9006 47.7269 38.036C48.0264 38.1714 48.3501 38.2449 48.6786 38.2521C49.0876 38.2507 49.4919 38.1647 49.8662 37.9995C50.2405 37.8342 50.5767 37.5933 50.8538 37.2917L52.0037 38.4634C51.5889 38.9667 51.0631 39.3666 50.4678 39.6316C49.8725 39.8966 49.2239 40.0194 48.5732 39.9904Z" fill="#0973B9"/>
<path d="M57.1781 39.9904C56.6096 40.0098 56.043 39.9139 55.5123 39.7086C54.9816 39.5032 54.4977 39.1926 54.0897 38.7953C53.6817 38.3981 53.3579 37.9223 53.1377 37.3966C52.9176 36.8709 52.8056 36.306 52.8085 35.7359C52.8612 34.6061 53.3461 33.5401 54.1625 32.7593C54.9789 31.9785 56.064 31.5428 57.1925 31.5428C58.3209 31.5428 59.406 31.9785 60.2224 32.7593C61.0388 33.5401 61.5237 34.6061 61.5764 35.7359C61.5741 36.307 61.4577 36.8719 61.2339 37.3971C61.0101 37.9223 60.6836 38.3973 60.2736 38.7939C59.8635 39.1905 59.3784 39.5007 58.8467 39.7062C58.315 39.9117 57.7477 40.0084 57.1781 39.9904ZM59.6791 35.7167C59.6907 35.3799 59.6346 35.0441 59.5142 34.7294C59.3938 34.4148 59.2116 34.1275 58.9783 33.8848C58.745 33.642 58.4655 33.4487 58.1562 33.3163C57.847 33.1839 57.5144 33.1151 57.1781 33.114C56.8452 33.1138 56.5157 33.1809 56.2093 33.3114C55.903 33.4419 55.626 33.633 55.3952 33.8734C55.1643 34.1137 54.9842 34.3984 54.8658 34.7101C54.7473 35.0219 54.6929 35.3545 54.7058 35.6879C54.6943 36.0242 54.7504 36.3595 54.8709 36.6737C54.9914 36.9878 55.1738 37.2745 55.4072 37.5164C55.6406 37.7584 55.9202 37.9508 56.2294 38.0822C56.5386 38.2135 56.871 38.2811 57.2068 38.2809C57.5401 38.2825 57.8702 38.2163 58.1772 38.0863C58.4842 37.9563 58.7617 37.7652 58.9928 37.5245C59.224 37.2839 59.404 36.9987 59.5219 36.6863C59.6399 36.3739 59.6934 36.0408 59.6791 35.7071V35.7167Z" fill="#0973B9"/>
<path d="M68.9932 39.8463L64.9782 34.5738V39.8271H63.1863V31.5774H64.8632L68.6962 36.6675V31.5774H70.4785V39.8463H68.9932Z" fill="#0973B9"/>
<path d="M75.4326 39.9712C74.1442 39.9736 72.8996 39.502 71.9351 38.6459L73.0083 37.3589C73.6869 37.9659 74.5614 38.307 75.471 38.3193C76.2184 38.3193 76.6592 38.0216 76.6592 37.5414C76.6592 37.0804 76.3813 36.8403 75.0014 36.485C73.3341 36.0624 72.2609 35.6014 72.2609 33.9592C72.2609 32.461 73.4682 31.4718 75.1356 31.4718C76.248 31.4533 77.3321 31.8234 78.2019 32.5186L77.2437 33.892C76.6282 33.4064 75.8792 33.1215 75.0973 33.0756C74.4073 33.0756 74.0432 33.3926 74.0432 33.7959C74.0432 34.3337 74.3977 34.5162 75.8159 34.8812C77.4928 35.3133 78.4415 35.9184 78.4415 37.3589C78.4703 39.0492 77.215 39.9712 75.4326 39.9712Z" fill="#0973B9"/>
<path d="M83.6064 33.2581V39.8463H81.7857V33.2581H79.2751V31.5774H86.117V33.2581H83.6064Z" fill="#0973B9"/>
<path d="M87.5927 39.8463V31.5774H89.4037V39.8463H87.5927Z" fill="#0973B9"/>
<path d="M95.2011 33.2581V39.8463H93.39V33.2581H90.8794V31.5774H97.7404V33.2581H95.2011Z" fill="#0973B9"/>
<path d="M102.532 39.9808C100.318 39.9808 98.9669 38.7419 98.9669 36.3025V31.5774H100.778V36.2545C100.778 37.599 101.449 38.3001 102.56 38.3001C103.672 38.3001 104.343 37.6279 104.343 36.3121V31.5774H106.154V36.2449C106.163 38.7515 104.764 39.9808 102.532 39.9808Z" fill="#0973B9"/>
<path d="M108.013 39.8463V31.5774H114.241V33.2005H109.814V34.8715H113.705V36.4946H109.814V38.2329H114.299V39.8463H108.013Z" fill="#0973B9"/>
<path d="M121.696 39.8463L117.7 34.5738V39.8271H115.947V31.5774H117.624L121.457 36.6675V31.5774H123.249V39.8463H121.696Z" fill="#0973B9"/>
<path d="M129.094 39.9904C128.534 39.9995 127.979 39.8956 127.46 39.6849C126.942 39.4742 126.471 39.161 126.075 38.764C125.68 38.367 125.369 37.8942 125.16 37.374C124.951 36.8538 124.848 36.2966 124.859 35.7359C124.848 35.1681 124.952 34.604 125.165 34.0776C125.378 33.5513 125.695 33.0736 126.097 32.6733C126.499 32.2731 126.978 31.9586 127.504 31.7488C128.031 31.539 128.595 31.4382 129.161 31.4526C129.762 31.4226 130.362 31.521 130.922 31.7412C131.482 31.9614 131.989 32.2984 132.409 32.7299L131.279 34.0456C130.728 33.4616 129.972 33.1169 129.171 33.0852C128.843 33.0926 128.521 33.1654 128.222 33.2995C127.924 33.4336 127.655 33.6263 127.432 33.8661C127.208 34.106 127.035 34.3882 126.922 34.6961C126.81 35.004 126.76 35.3314 126.775 35.6591C126.757 35.9883 126.805 36.3177 126.917 36.6279C127.028 36.9381 127.201 37.2226 127.424 37.4645C127.648 37.7064 127.918 37.9008 128.218 38.0361C128.518 38.1714 128.842 38.2449 129.171 38.2521C129.578 38.2494 129.98 38.1628 130.353 37.9975C130.726 37.8323 131.06 37.5921 131.336 37.2917L132.496 38.4634C132.083 38.9622 131.562 39.3593 130.972 39.6241C130.382 39.8889 129.74 40.0142 129.094 39.9904Z" fill="#0973B9"/>
<path d="M137.987 36.5522V39.8463H136.175V36.5906L133.004 31.5774H135.112L137.028 34.9004L139.031 31.5774H141.091L137.987 36.5522Z" fill="#0973B9"/>
</g>
<defs>
<clipPath id="clip0_118_50">
<rect width="229" height="40" fill="white"/>
</clipPath>
</defs>
</svg>
