<svg width="8" height="13" viewBox="0 0 8 13" fill="none" xmlns="http://www.w3.org/2000/svg">
<path d="M4.14955 2.72608C4.74185 2.72608 5.22647 2.23771 5.22647 1.64081C5.22647 1.04391 4.74185 0.555542 4.14955 0.555542C3.55724 0.555542 3.07262 1.04391 3.07262 1.64081C3.07262 2.23771 3.55724 2.72608 4.14955 2.72608ZM2.15724 4.57105L0.649546 12.2222H1.78032L2.74955 7.88112L3.88031 8.9664V12.2222H4.95724V8.15244L3.82647 7.06717L4.14955 5.43926C4.84955 6.25322 5.92647 6.79585 7.11108 6.79585V5.71058C6.08801 5.71058 5.22647 5.16795 4.7957 4.40826L4.25724 3.54004C4.04185 3.21446 3.71878 2.9974 3.34185 2.9974C3.18032 2.9974 3.07262 3.05167 2.91108 3.05167L0.111084 4.24546V6.79585H1.18801V4.95089L2.15724 4.57105Z" fill="#CE0E2D"/>
</svg>
